<svg xmlns="http://www.w3.org/2000/svg" width="1200" height="1200" viewBox="0 0 1200 1200">
  <rect width="1200" height="1200" fill="#fffdf8"/>
  <g transform="translate(0,285)">
    <rect x="0" y="0" width="1200" height="630" fill="#fffdf8"/>
    <rect x="54" y="54" width="1092" height="522" rx="10" fill="none" stroke="rgba(24,22,18,.14)"/>
    <text x="92" y="128" font-family="Georgia, 'Times New Roman', serif" font-size="74" letter-spacing="-3.4" fill="#181612">When the Backlog</text>
    <text x="92" y="206" font-family="Georgia, 'Times New Roman', serif" font-size="74" letter-spacing="-3.4" fill="#181612">Runs Out</text>
    <text x="96" y="258" font-family="Helvetica Neue, Arial, sans-serif" font-size="25" fill="#726b60">Autonomous product progress with AI agents</text>
    <g transform="translate(95,315)">
      <rect x="0" y="0" width="1010" height="204" rx="4" fill="rgba(255,255,255,.34)" stroke="rgba(24,22,18,.12)"/>
      <path d="M40 164 C156 90 257 93 370 124 C480 154 560 137 660 83 C770 25 870 20 962 60" fill="none" stroke="rgba(24,22,18,.10)" stroke-width="3"/>
      <path d="M54 128 C168 65 278 61 384 91 C493 121 582 106 681 59 C784 9 880 6 960 37" fill="none" stroke="rgba(24,22,18,.20)" stroke-width="3"/>
      <path d="M104 92 C205 47 310 41 410 64 C510 87 594 80 694 46 C780 17 866 14 932 25" fill="none" stroke="rgba(24,22,18,.12)" stroke-width="3"/>
      <ellipse cx="870" cy="52" rx="92" ry="38" transform="rotate(-8 870 52)" fill="rgba(95,117,95,.16)" stroke="rgba(95,117,95,.66)"/>
      <text x="858" y="57" font-family="Helvetica Neue, Arial, sans-serif" font-size="17" fill="#5f755f">objective</text>
      <defs><marker id="arrow" markerWidth="10" markerHeight="10" refX="8" refY="5" orient="auto"><path d="M0,0 L9,5 L0,10 Z" fill="#856d3f"/></marker></defs>
      <path d="M88 162 L200 102" stroke="#856d3f" stroke-width="5" fill="none" stroke-linecap="round" marker-end="url(#arrow)"/>
      <path d="M200 102 L318 119" stroke="#856d3f" stroke-width="5" fill="none" stroke-linecap="round" marker-end="url(#arrow)"/>
      <path d="M318 119 L445 74" stroke="#856d3f" stroke-width="5" fill="none" stroke-linecap="round" marker-end="url(#arrow)"/>
      <path d="M445 74 L570 90" stroke="#856d3f" stroke-width="5" fill="none" stroke-linecap="round" marker-end="url(#arrow)"/>
      <path d="M570 90 L710 48" stroke="#856d3f" stroke-width="5" fill="none" stroke-linecap="round" marker-end="url(#arrow)"/>
      <path d="M710 48 L850 50" stroke="#856d3f" stroke-width="5" fill="none" stroke-linecap="round" marker-end="url(#arrow)"/>
      <circle cx="88" cy="162" r="8" fill="#fffdf8" stroke="#181612" stroke-width="2"/>
      <circle cx="200" cy="102" r="7" fill="#856d3f"/>
      <circle cx="318" cy="119" r="7" fill="#856d3f"/>
      <circle cx="445" cy="74" r="7" fill="#856d3f"/>
      <circle cx="570" cy="90" r="7" fill="#856d3f"/>
      <circle cx="710" cy="48" r="7" fill="#856d3f"/>
      <circle cx="850" cy="50" r="7" fill="#856d3f"/>
    </g>
    <text x="96" y="558" font-family="Helvetica Neue, Arial, sans-serif" font-size="20" fill="#726b60">arloclarke.com</text>
  </g>
</svg>
